<?xml version="1.0" encoding="UTF-8"?><svg id="a" xmlns="http://www.w3.org/2000/svg" viewBox="0 0 315.14 111.56"><defs><style>.b{fill:#f27588;}.c{fill:#fff;}.d{fill:#e4332d;}.e{fill:#055ba8;}.f{fill:#185eaa;}</style></defs><path class="f" d="M156.58,39.92c0,12.65-10.23,22.94-22.94,23.01h-17.86V16.97h17.86c12.65,0,22.94,10.3,22.94,22.94m-33.05-15.13v30.31h10.1c8.39,0,15.13-6.86,15.13-15.19s-6.74-15.06-15.06-15.13h-10.17Zm57.01,4.13v7.82h-4.77c-2.86,0-6.04,1.78-6.04,5.21v20.97h-7.82V28.92h7.82v3.5c1.53-2.16,3.5-3.5,6.04-3.5h4.77Zm38.07,33.94h-7.82v-3.43c-2.54,3.05-6.8,4.19-9.98,4.19-8.52,0-14.74-5.91-14.74-13.73V29.75h7.82v17.79c0,6.99,3.88,9.15,7.94,9.15,5.21,0,8.96-4,8.96-10.04V29.75h7.82V62.86h0Zm42.96-16.52c0,9.53-7.69,17.35-16.97,17.35-3.88,0-7.63-1.33-10.61-3.81v18.62h-7.82V29.68h7.82v2.99c2.99-2.48,6.74-3.81,10.61-3.81,9.28,.06,16.97,7.82,16.97,17.48m-7.82,0c0-5.4-4.13-9.66-9.15-9.66s-9.21,4.26-9.21,9.66,4.13,9.53,9.21,9.53,9.15-4.32,9.15-9.53m39.02-16.65h7.82V62.92h-7.82v-2.99c-2.99,2.48-6.74,3.81-10.61,3.81-9.28,0-16.97-7.82-16.97-17.41s7.69-17.35,16.97-17.35c3.88,0,7.63,1.33,10.61,3.81v-3.11Zm-1.4,16.59c0-5.21-4.13-9.53-9.21-9.53s-9.15,4.32-9.15,9.53,4.13,9.66,9.15,9.66c5.08-.06,9.21-4.32,9.21-9.66h0Zm15.95-32.09h7.82V62.92h-7.82V14.18Z"/><g><path class="d" d="M132.56,95.89c0,2.27-.82,4.07-2.45,5.42-1.63,1.35-3.95,2.02-6.96,2.02-2.7,0-5.11-.51-7.23-1.54v-5.05c1.22,.52,2.47,1.01,3.78,1.45,1.3,.44,2.59,.66,3.88,.66s2.28-.26,2.84-.77c.56-.51,.84-1.16,.84-1.95,0-.64-.22-1.19-.66-1.65s-1.03-.88-1.77-1.27-1.59-.82-2.54-1.27c-.6-.29-1.24-.63-1.93-1.02s-1.35-.88-1.99-1.47c-.63-.58-1.15-1.29-1.56-2.13-.4-.83-.61-1.84-.61-3.01,0-2.29,.78-4.07,2.33-5.35,1.55-1.28,3.66-1.91,6.33-1.91,1.34,0,2.61,.16,3.81,.47,1.2,.31,2.46,.75,3.77,1.32l-1.75,4.22c-1.17-.48-2.22-.85-3.15-1.11-.93-.26-1.88-.39-2.86-.39s-1.81,.24-2.36,.72c-.55,.48-.82,1.1-.82,1.86,0,.91,.41,1.62,1.22,2.15,.81,.52,2.02,1.17,3.62,1.93,1.31,.62,2.43,1.26,3.35,1.93,.92,.67,1.63,1.46,2.13,2.36,.5,.91,.75,2.03,.75,3.36Z"/><path class="d" d="M148.69,83.08c.26,0,.57,.01,.93,.04,.36,.02,.64,.06,.86,.11l-.39,5.01c-.17-.05-.41-.09-.73-.13s-.6-.05-.84-.05c-.91,0-1.78,.16-2.61,.48-.83,.32-1.51,.84-2.02,1.56-.51,.72-.77,1.69-.77,2.93v9.95h-5.33v-19.54h4.04l.79,3.29h.25c.57-1,1.36-1.86,2.36-2.58,1-.72,2.16-1.07,3.47-1.07Z"/><path class="d" d="M160.36,82.11c0,.74-.02,1.47-.07,2.18-.05,.72-.1,1.28-.14,1.68h.21c.52-.81,1.23-1.5,2.11-2.06,.88-.56,2.03-.84,3.43-.84,2.2,0,3.97,.85,5.33,2.56,1.36,1.71,2.04,4.22,2.04,7.53s-.69,5.87-2.07,7.59c-1.38,1.72-3.2,2.58-5.44,2.58-1.43,0-2.56-.26-3.38-.77s-1.5-1.09-2.02-1.74h-.36l-.89,2.15h-4.08v-27.19h5.33v6.33Zm3.83,5.22c-1.38,0-2.36,.43-2.92,1.29-.56,.86-.87,2.17-.91,3.94v.57c0,1.88,.28,3.33,.84,4.35,.56,1.01,1.58,1.52,3.06,1.52,1.1,0,1.97-.51,2.61-1.52,.64-1.01,.97-2.47,.97-4.38s-.33-3.35-.98-4.31c-.66-.97-1.54-1.45-2.67-1.45Z"/><path class="d" d="M181.36,75.78c.79,0,1.47,.19,2.04,.55,.57,.37,.86,1.06,.86,2.06s-.29,1.66-.86,2.04c-.57,.38-1.25,.57-2.04,.57s-1.5-.19-2.06-.57c-.56-.38-.84-1.06-.84-2.04s.28-1.69,.84-2.06c.56-.37,1.25-.55,2.06-.55Zm2.65,7.66v19.54h-5.33v-19.54h5.33Z"/><path class="d" d="M189.02,111.56c-.6,0-1.22-.04-1.88-.12-.66-.08-1.2-.19-1.63-.3v-4.19c.43,.1,.84,.17,1.22,.23,.38,.06,.81,.09,1.29,.09,.71,0,1.32-.2,1.82-.61,.5-.41,.75-1.19,.75-2.36v-20.86h5.33v21.65c0,1.19-.23,2.28-.68,3.26-.45,.98-1.19,1.76-2.2,2.34-1.02,.58-2.36,.88-4.03,.88Zm1.36-33.17c0-1,.28-1.69,.84-2.06,.56-.37,1.25-.55,2.06-.55s1.47,.19,2.04,.55c.57,.37,.86,1.06,.86,2.06s-.29,1.66-.86,2.04c-.57,.38-1.25,.57-2.04,.57s-1.5-.19-2.06-.57c-.56-.38-.84-1.06-.84-2.04Z"/><path class="d" d="M210.52,83.04c2.62,0,4.63,.57,6.03,1.7,1.39,1.13,2.09,2.87,2.09,5.21v13.02h-3.72l-1.04-2.65h-.14c-.84,1.05-1.72,1.81-2.65,2.29-.93,.48-2.21,.72-3.83,.72-1.74,0-3.19-.51-4.33-1.52-1.14-1.01-1.72-2.57-1.72-4.67s.73-3.61,2.18-4.6c1.46-.99,3.64-1.53,6.55-1.63l3.4-.11v-.86c0-1.03-.27-1.78-.8-2.25-.54-.48-1.28-.72-2.24-.72s-1.88,.14-2.79,.41c-.91,.27-1.81,.61-2.72,1.02l-1.75-3.61c1.05-.55,2.21-.98,3.49-1.29s2.61-.47,3.99-.47Zm.75,10.95c-1.72,.05-2.91,.36-3.58,.93-.67,.57-1,1.32-1,2.25,0,.81,.24,1.39,.71,1.74s1.1,.52,1.86,.52c1.14,0,2.11-.34,2.9-1.02,.79-.68,1.18-1.64,1.18-2.88v-1.61l-2.07,.07Z"/></g><path class="e" d="M69.9,19.83c-5.45-3.4-10.58-4.73-15.73-8.11C51,9.55,46.57,4.43,42.87,0c-.71,7.1-2.88,9.97-5.34,12.03-5.23,4.11-8.52,5.34-13.04,7.81C20.67,21.78,.03,34.12,.03,60.63s22.31,46.04,47.06,46.04,46.24-17.98,46.24-45.21-20.14-39.57-23.43-41.62Z"/><path class="c" d="M61.55,83.63c1.64,0,3.4,.11,4.63,.93,1.23,.82,1.95,2.67,2.36,3.7s0,1.64-.82,2.06c-.71,.41-.82,.21-1.53-1.12-.71-1.33-1.34-2.67-4.93-2.67s-4.73,1.23-6.47,2.67-2.36,1.95-2.99,1.12-.41-1.64,.71-2.67,2.99-2.67,4.73-3.4,2.67-.62,4.32-.62h0Z"/><path class="c" d="M44.5,95.35c2.06,1.64,5.14,2.99,11.71,2.99s11.19-1.86,13.25-3.4c.93-.71,1.34-.11,1.44,.3s.3,1.03-.41,1.75c-.52,.52-5.23,3.81-10.8,4.32s-13.04,.82-17.56-3.29c-.71-.71-.52-1.75,0-2.16s.93-.71,1.53-.71,.52,0,.84,.21h0Z"/><path class="d" d="M19.32,87.54c7.81-.11,9.25-1.44,16.14-4.52,37.2-16.65,44.09-31.86,45.42-35.35,1.33-3.49,3.29-9.15,1.23-15.41-.4-1.21-.69-2.18-.89-2.96-4.95-5.52-9.85-8.55-11.33-9.47-5.34-3.4-10.59-4.73-15.73-8.11-3.18-2.06-7.6-7.29-11.3-11.71-.71,7.1-2.77,10.07-5.34,12.03-5.23,4.11-8.52,5.34-13.04,7.81C20.66,21.88,0,34.1,0,60.61c0,8.47,2.27,16.22,6.18,22.85l.86-.08c2.15,1.95,5.7,4.26,12.27,4.15Z"/><path class="d" d="M69.88,19.83c-5.34-3.4-10.58-4.73-15.73-8.11C50.97,9.66,46.54,4.43,42.84,0c-.71,7.1-2.77,10.07-5.34,12.03-5.23,4.11-8.52,5.34-13.04,7.81C20.66,21.88,0,34.1,0,60.61c0,8.47,2.27,16.22,6.18,22.85,8.32,14.14,24.03,23.18,40.88,23.18,24.77,0,46.24-17.98,46.24-45.21,0-14.95-6.07-25.42-12.1-32.14-4.95-5.54-9.85-8.55-11.33-9.47Zm12.5,12.02c6.74,8.44,10.17,18.39,10.17,29.59,0,6.49-1.23,12.63-3.67,18.25-2.32,5.32-5.64,10.03-9.91,14.02-8.43,7.86-19.74,12.19-31.88,12.19-6,0-11.89-1.15-17.51-3.41-5.52-2.22-10.48-5.4-14.77-9.45C5.74,84.48,.77,72.97,.77,60.61c0-11,3.58-20.78,10.62-29.07,5.38-6.33,11.19-9.84,13.43-11.04,1.1-.59,2.11-1.12,3.1-1.63,3.1-1.59,6.03-3.1,10.06-6.25,2.15-1.63,4.44-4.22,5.41-10.78,3.4,4.04,7.33,8.58,10.34,10.52,2.67,1.77,5.41,3,8.06,4.19,2.51,1.12,5.1,2.3,7.66,3.93l.1,.05c7.52,4.67,11.52,9.67,12.84,11.3Z"/><path class="b" d="M43.36,2.04c1.44,4.22,1.23,6.37,1.23,7.29s-.52,3.4-2.16,4.63c-.71,.52-.93,.93-.93,1.03,0,.41,.93,.71,.93,1.64,0,1.12-.52,3.4-5.96,8.84s-13.26,10.28-19.32,13.26-8.93,2.77-9.76,1.33,.3-4.63,4.11-8.84,15.82-10.28,15.82-10.28l15-10.48,.82-4"/><path class="c" d="M43.36,1.93c-.93,6.78-2.99,8.84-5.75,10.99-4.63,3.49-9.15,5.64-10.17,6.17-2.67,1.34-12.33,6.69-17.37,14.39-1.53,2.36,0,3.29,.3,3.49s3.81,.62,11.3-3.9,10.8-7.18,15.02-11.59c2.26-2.36,2.58-3.7,2.58-4.32,0-.71-.52-1.03-1.34-1.23-.41-.11-.52-.3,0-.62s2.66-1.34,3.18-1.75,2.99-2.06,3.08-4.73-.1-4.52-.82-6.89h0Z"/><path class="c" d="M20.25,76.64c.11-8.02,7.6-15.51,17.06-15.62,12.03-.11,20.35,11.92,26.42,11.81,5.14-.11,15-10.17,19.84-10.17,5.14,0,6.58,5.34,6.58,8.52s-1.03,8.93-3.49,12.54c-2.47,3.6-4,4.93-6.88,4.73-3.7-.3-11.1-11.81-15.82-12.03-5.96-.21-18.91,12.44-29.07,12.44-6.17,0-8.02-.93-10.07-2.26-3.12-2.15-4.66-5.44-4.55-9.96h0Z"/><path class="e" d="M81.12,29.17s.24,.65,.62,1.88c.2,.25,.5,.61,.64,.79,6.74,8.44,10.17,18.39,10.17,29.59,0,6.49-1.23,12.63-3.67,18.25-2.32,5.32-5.64,10.03-9.91,14.02-8.43,7.86-19.74,12.19-31.88,12.19-6,0-11.89-1.15-17.51-3.41-5.52-2.22-10.48-5.4-14.77-9.45-3.08-2.91-5.67-6.16-7.78-9.67-1.06-.91-1.19-1.06-1.83-1.65,.16,.28,.83,1.48,.99,1.75,8.32,14.14,24.03,23.18,40.88,23.18,24.77,0,46.24-17.98,46.24-45.21,0-14.38-5.62-24.61-11.41-31.36-.23-.27-.55-.65-.78-.91Z"/></svg>